<svg width="133" height="49" viewBox="0 0 133 49" fill="none" xmlns="http://www.w3.org/2000/svg">
<g filter="url(#filter0_f_8_2)">
<path d="M18.1027 9.4906V36.2175C19.4417 35.9973 22.2549 35.5122 27.5694 35.1153V40.3505C21.4148 40.7311 18.0318 41.2148 12.186 42.8303V9.4906H18.1027Z" fill="#3E0576"/>
<path d="M59.8152 25.7472V21.3386H49.7568V25.7472H59.8152Z" fill="#3E0576"/>
<path d="M78.1568 13.6236V9.21507H63.3652V38.9728H69.2818V26.2982H76.3818V21.8897H69.2818V13.6236H78.1568Z" fill="#3E0576"/>
<path d="M81.1151 9.21507H86.4401V34.5643C87.7859 34.594 90.1119 34.7346 95.9068 35.1153V39.5239C89.1563 39.1597 85.7454 39.0056 81.1151 38.9728V9.21507Z" fill="#3E0576"/>
<path d="M104.19 9.21507H98.2735V39.6599L104.19 40.075V9.21507Z" fill="#3E0576"/>
<path d="M113.065 9.21507H107.148L112.769 24.3695L106.853 40.3505L112.178 40.9016L116.615 29.0536L120.757 42.2793L127.265 43.3814L120.757 24.645L126.673 9.21507H121.348L117.207 20.2365L113.065 9.21507Z" fill="#3E0576"/>
<path fill-rule="evenodd" clip-rule="evenodd" d="M29.0485 14.7258V32.6355C29.0485 36.2175 31.711 39.7994 35.261 39.7994H39.1068C41.7693 39.7994 46.5027 36.2175 46.2068 32.6355V14.1747C46.2068 11.4193 42.361 8.93954 38.811 8.93954H35.8527C32.5985 8.93954 29.0485 11.6949 29.0485 14.7258ZM34.9652 32.0845V15.2768C34.9652 13.8992 36.444 13.3481 37.9235 13.3481C39.1068 13.3481 40.586 14.1747 40.586 15.2768V32.0845C40.586 33.1866 39.6985 34.8398 37.6277 34.8398C36.1485 34.8398 34.9652 34.2887 34.9652 32.0845Z" fill="#3E0576"/>
</g>
<g filter="url(#filter1_f_8_2)">
<path d="M11.9911 6.09526V32.8221C13.3301 32.602 16.1433 32.1168 21.4578 31.72V36.9552C15.3032 37.3357 11.9202 37.8194 6.07443 39.435V6.09526H11.9911Z" fill="#7809A4"/>
<path d="M53.7036 22.3518V17.9433H43.6452V22.3518H53.7036Z" fill="#7809A4"/>
<path d="M72.0452 10.2283V5.81972H57.2536V35.5775H63.1702V22.9029H70.2702V18.4943H63.1702V10.2283H72.0452Z" fill="#7809A4"/>
<path d="M75.0035 5.81972H80.3285V31.1689C81.6743 31.1986 84.0003 31.3393 89.7952 31.72V36.1286C83.0447 35.7644 79.6338 35.6102 75.0035 35.5775V5.81972Z" fill="#7809A4"/>
<path d="M98.0785 5.81972H92.1619V36.2646L98.0785 36.6796V5.81972Z" fill="#7809A4"/>
<path d="M106.954 5.81972H101.037L106.658 20.9741L100.741 36.9552L106.066 37.5062L110.504 25.6582L114.645 38.8839L121.154 39.986L114.645 21.2497L120.562 5.81972H115.237L111.095 16.8411L106.954 5.81972Z" fill="#7809A4"/>
<path fill-rule="evenodd" clip-rule="evenodd" d="M22.9369 11.3304V29.2402C22.9369 32.8221 25.5994 36.4041 29.1494 36.4041H32.9952C35.6577 36.4041 40.3911 32.8221 40.0952 29.2402V10.7793C40.0952 8.024 36.2494 5.54419 32.6994 5.54419H29.7411C26.4869 5.54419 22.9369 8.29953 22.9369 11.3304ZM28.8536 28.6891V11.8815C28.8536 10.5038 30.3324 9.95274 31.8119 9.95274C32.9952 9.95274 34.4744 10.7793 34.4744 11.8815V28.6891C34.4744 29.7913 33.5869 31.4445 31.5161 31.4445C30.0369 31.4445 28.8536 30.8934 28.8536 28.6891Z" fill="#7809A4"/>
</g>
<g filter="url(#filter2_f_8_2)">
<path d="M14.0283 6.09526V32.8221C15.3673 32.602 18.1805 32.1168 23.495 31.72V36.9552C17.3404 37.3357 13.9574 37.8194 8.11163 39.435V6.09526H14.0283Z" fill="#C20F08"/>
<path d="M55.7408 22.3518V17.9433H45.6824V22.3518H55.7408Z" fill="#C20F08"/>
<path d="M74.0824 10.2283V5.81972H59.2908V35.5775H65.2074V22.9029H72.3074V18.4943H65.2074V10.2283H74.0824Z" fill="#C20F08"/>
<path d="M77.0407 5.81972H82.3657V31.1689C83.7115 31.1986 86.0375 31.3393 91.8324 31.72V36.1286C85.0819 35.7644 81.671 35.6102 77.0407 35.5775V5.81972Z" fill="#C20F08"/>
<path d="M100.116 5.81972H94.1991V36.2646L100.116 36.6796V5.81972Z" fill="#C20F08"/>
<path d="M108.991 5.81972H103.074L108.695 20.9741L102.778 36.9552L108.103 37.5062L112.541 25.6582L116.682 38.8839L123.191 39.986L116.682 21.2497L122.599 5.81972H117.274L113.132 16.8411L108.991 5.81972Z" fill="#C20F08"/>
<path fill-rule="evenodd" clip-rule="evenodd" d="M24.9741 11.3304V29.2402C24.9741 32.8221 27.6366 36.4041 31.1866 36.4041H35.0324C37.6949 36.4041 42.4283 32.8221 42.1324 29.2402V10.7793C42.1324 8.024 38.2866 5.54419 34.7366 5.54419H31.7783C28.5241 5.54419 24.9741 8.29953 24.9741 11.3304ZM30.8908 28.6891V11.8815C30.8908 10.5038 32.3696 9.95274 33.8491 9.95274C35.0324 9.95274 36.5116 10.7793 36.5116 11.8815V28.6891C36.5116 29.7913 35.6241 31.4445 33.5533 31.4445C32.0741 31.4445 30.8908 30.8934 30.8908 28.6891Z" fill="#C20F08"/>
</g>
<defs>
<filter id="filter0_f_8_2" x="6.75348" y="3.50698" width="125.944" height="45.307" filterUnits="userSpaceOnUse" color-interpolation-filters="sRGB">
<feFlood flood-opacity="0" result="BackgroundImageFix"/>
<feBlend mode="normal" in="SourceGraphic" in2="BackgroundImageFix" result="shape"/>
<feGaussianBlur stdDeviation="2.71628" result="effect1_foregroundBlur_8_2"/>
</filter>
<filter id="filter1_f_8_2" x="0.641874" y="0.111628" width="125.944" height="45.307" filterUnits="userSpaceOnUse" color-interpolation-filters="sRGB">
<feFlood flood-opacity="0" result="BackgroundImageFix"/>
<feBlend mode="normal" in="SourceGraphic" in2="BackgroundImageFix" result="shape"/>
<feGaussianBlur stdDeviation="2.71628" result="effect1_foregroundBlur_8_2"/>
</filter>
<filter id="filter2_f_8_2" x="2.67908" y="0.111628" width="125.944" height="45.307" filterUnits="userSpaceOnUse" color-interpolation-filters="sRGB">
<feFlood flood-opacity="0" result="BackgroundImageFix"/>
<feBlend mode="normal" in="SourceGraphic" in2="BackgroundImageFix" result="shape"/>
<feGaussianBlur stdDeviation="2.71628" result="effect1_foregroundBlur_8_2"/>
</filter>
</defs>
</svg>
