<svg width="117" height="36" viewBox="0 0 117 36" fill="none" xmlns="http://www.w3.org/2000/svg">
<g filter="url(#filter0_i_3_30)">
<path d="M6.38642 1.4534V28.1803C7.72543 27.9601 10.5386 27.475 15.8531 27.0781V32.3133C9.69854 32.6939 6.31552 33.1776 0.469757 34.7931V1.4534H6.38642Z" fill="#043682"/>
<path d="M48.0989 17.71V13.3014H38.0406V17.71H48.0989Z" fill="#043682"/>
<path d="M66.4405 5.58642V1.17786H51.6489V30.9356H57.5655V18.261H64.6655V13.8525H57.5655V5.58642H66.4405Z" fill="#043682"/>
<path d="M69.3989 1.17786H74.7239V26.5271C76.0696 26.5567 78.3957 26.6974 84.1905 27.0781V31.4867C77.44 31.1225 74.0292 30.9684 69.3989 30.9356V1.17786Z" fill="#043682"/>
<path d="M92.4738 1.17786H86.5572V31.6227L92.4738 32.0378V1.17786Z" fill="#043682"/>
<path d="M101.349 1.17786H95.4322L101.053 16.3323L95.1363 32.3133L100.461 32.8644L104.899 21.0164L109.04 34.242L115.549 35.3442L109.04 16.6078L114.957 1.17786H109.632L105.491 12.1993L101.349 1.17786Z" fill="#043682"/>
<path fill-rule="evenodd" clip-rule="evenodd" d="M17.3322 6.68856V24.5983C17.3322 28.1803 19.9947 31.7622 23.5447 31.7622H27.3906C30.0531 31.7622 34.7864 28.1803 34.4906 24.5983V6.13749C34.4906 3.38214 30.6447 0.902326 27.0947 0.902326H24.1364C20.8822 0.902326 17.3322 3.65767 17.3322 6.68856ZM23.2489 24.0473V7.23963C23.2489 5.86195 24.7277 5.31088 26.2072 5.31088C27.3906 5.31088 28.8697 6.13749 28.8697 7.23963V24.0473C28.8697 25.1494 27.9822 26.8026 25.9114 26.8026C24.4322 26.8026 23.2489 26.2515 23.2489 24.0473Z" fill="#043682"/>
</g>
<path d="M6.38642 1.4534V28.1803C7.72543 27.9601 10.5386 27.475 15.8531 27.0781V32.3133C9.69854 32.6939 6.31552 33.1776 0.469757 34.7931V1.4534H6.38642Z" stroke="black" stroke-width="0.67907"/>
<path d="M48.0989 17.71V13.3014H38.0406V17.71H48.0989Z" stroke="black" stroke-width="0.67907"/>
<path d="M66.4405 5.58642V1.17786H51.6489V30.9356H57.5655V18.261H64.6655V13.8525H57.5655V5.58642H66.4405Z" stroke="black" stroke-width="0.67907"/>
<path d="M69.3989 1.17786H74.7239V26.5271C76.0696 26.5567 78.3957 26.6974 84.1905 27.0781V31.4867C77.44 31.1225 74.0292 30.9684 69.3989 30.9356V1.17786Z" stroke="black" stroke-width="0.67907"/>
<path d="M92.4738 1.17786H86.5572V31.6227L92.4738 32.0378V1.17786Z" stroke="black" stroke-width="0.67907"/>
<path d="M101.349 1.17786H95.4322L101.053 16.3323L95.1363 32.3133L100.461 32.8644L104.899 21.0164L109.04 34.242L115.549 35.3442L109.04 16.6078L114.957 1.17786H109.632L105.491 12.1993L101.349 1.17786Z" stroke="black" stroke-width="0.67907"/>
<path fill-rule="evenodd" clip-rule="evenodd" d="M17.3322 6.68856V24.5983C17.3322 28.1803 19.9947 31.7622 23.5447 31.7622H27.3906C30.0531 31.7622 34.7864 28.1803 34.4906 24.5983V6.13749C34.4906 3.38214 30.6447 0.902326 27.0947 0.902326H24.1364C20.8822 0.902326 17.3322 3.65767 17.3322 6.68856ZM23.2489 24.0473V7.23963C23.2489 5.86195 24.7277 5.31088 26.2072 5.31088C27.3906 5.31088 28.8697 6.13749 28.8697 7.23963V24.0473C28.8697 25.1494 27.9822 26.8026 25.9114 26.8026C24.4322 26.8026 23.2489 26.2515 23.2489 24.0473Z" stroke="black" stroke-width="0.67907"/>
<defs>
<filter id="filter0_i_3_30" x="0.130219" y="0.562791" width="115.928" height="37.9282" filterUnits="userSpaceOnUse" color-interpolation-filters="sRGB">
<feFlood flood-opacity="0" result="BackgroundImageFix"/>
<feBlend mode="normal" in="SourceGraphic" in2="BackgroundImageFix" result="shape"/>
<feColorMatrix in="SourceAlpha" type="matrix" values="0 0 0 0 0 0 0 0 0 0 0 0 0 0 0 0 0 0 127 0" result="hardAlpha"/>
<feOffset dy="2.71628"/>
<feGaussianBlur stdDeviation="1.35814"/>
<feComposite in2="hardAlpha" operator="arithmetic" k2="-1" k3="1"/>
<feColorMatrix type="matrix" values="0 0 0 0 0 0 0 0 0 0 0 0 0 0 0 0 0 0 0.25 0"/>
<feBlend mode="normal" in2="shape" result="effect1_innerShadow_3_30"/>
</filter>
</defs>
</svg>
